<mxfile host="app.diagrams.net" modified="2022-03-21T22:33:54.334Z" agent="5.0 (Windows NT 10.0; Win64; x64) AppleWebKit/537.36 (KHTML, like Gecko) Chrome/99.0.4844.82 Safari/537.36" etag="u_WKloGIoMQMKJGFhQMF" version="17.1.3" type="github">
  <diagram id="TMnyqZ_x0T0Qdvfy8ktH" name="Página-1">
    <mxGraphModel dx="1021" dy="529" grid="1" gridSize="10" guides="1" tooltips="1" connect="1" arrows="1" fold="1" page="1" pageScale="1" pageWidth="827" pageHeight="1169" math="0" shadow="0">
      <root>
        <mxCell id="0" />
        <mxCell id="1" parent="0" />
        <mxCell id="K3CkPh_SVIyZ5qwEGXqX-53" style="edgeStyle=orthogonalEdgeStyle;rounded=0;orthogonalLoop=1;jettySize=auto;html=1;entryX=0;entryY=0.5;entryDx=0;entryDy=0;endArrow=none;endFill=0;" parent="1" source="K3CkPh_SVIyZ5qwEGXqX-36" target="K3CkPh_SVIyZ5qwEGXqX-51" edge="1">
          <mxGeometry relative="1" as="geometry" />
        </mxCell>
        <mxCell id="K3CkPh_SVIyZ5qwEGXqX-36" value="paciente" style="whiteSpace=wrap;html=1;align=center;" parent="1" vertex="1">
          <mxGeometry x="180" y="220" width="100" height="40" as="geometry" />
        </mxCell>
        <mxCell id="K3CkPh_SVIyZ5qwEGXqX-54" style="edgeStyle=orthogonalEdgeStyle;rounded=0;orthogonalLoop=1;jettySize=auto;html=1;endArrow=none;endFill=0;exitX=0.5;exitY=1;exitDx=0;exitDy=0;" parent="1" source="K3CkPh_SVIyZ5qwEGXqX-37" target="K3CkPh_SVIyZ5qwEGXqX-52" edge="1">
          <mxGeometry relative="1" as="geometry">
            <Array as="points">
              <mxPoint x="825" y="330" />
            </Array>
          </mxGeometry>
        </mxCell>
        <mxCell id="K3CkPh_SVIyZ5qwEGXqX-37" value="médico" style="whiteSpace=wrap;html=1;align=center;" parent="1" vertex="1">
          <mxGeometry x="887" y="200" width="100" height="40" as="geometry" />
        </mxCell>
        <mxCell id="K3CkPh_SVIyZ5qwEGXqX-38" value="Exames" style="whiteSpace=wrap;html=1;align=center;" parent="1" vertex="1">
          <mxGeometry x="524" y="560" width="100" height="40" as="geometry" />
        </mxCell>
        <mxCell id="K3CkPh_SVIyZ5qwEGXqX-42" style="edgeStyle=orthogonalEdgeStyle;rounded=0;orthogonalLoop=1;jettySize=auto;html=1;endArrow=none;endFill=0;" parent="1" source="K3CkPh_SVIyZ5qwEGXqX-43" target="K3CkPh_SVIyZ5qwEGXqX-38" edge="1">
          <mxGeometry relative="1" as="geometry" />
        </mxCell>
        <mxCell id="K3CkPh_SVIyZ5qwEGXqX-43" value="gera" style="shape=rhombus;perimeter=rhombusPerimeter;whiteSpace=wrap;html=1;align=center;" parent="1" vertex="1">
          <mxGeometry x="514" y="420" width="120" height="60" as="geometry" />
        </mxCell>
        <mxCell id="K3CkPh_SVIyZ5qwEGXqX-58" style="edgeStyle=orthogonalEdgeStyle;rounded=0;orthogonalLoop=1;jettySize=auto;html=1;endArrow=none;endFill=0;" parent="1" target="K3CkPh_SVIyZ5qwEGXqX-43" edge="1">
          <mxGeometry relative="1" as="geometry">
            <mxPoint x="575" y="350" as="sourcePoint" />
          </mxGeometry>
        </mxCell>
        <mxCell id="K3CkPh_SVIyZ5qwEGXqX-56" style="edgeStyle=orthogonalEdgeStyle;rounded=0;orthogonalLoop=1;jettySize=auto;html=1;entryX=0;entryY=0.5;entryDx=0;entryDy=0;endArrow=none;endFill=0;" parent="1" source="K3CkPh_SVIyZ5qwEGXqX-51" edge="1">
          <mxGeometry relative="1" as="geometry">
            <mxPoint x="525" y="330" as="targetPoint" />
          </mxGeometry>
        </mxCell>
        <mxCell id="K3CkPh_SVIyZ5qwEGXqX-51" value="possui" style="shape=rhombus;perimeter=rhombusPerimeter;whiteSpace=wrap;html=1;align=center;" parent="1" vertex="1">
          <mxGeometry x="260" y="300" width="120" height="60" as="geometry" />
        </mxCell>
        <mxCell id="K3CkPh_SVIyZ5qwEGXqX-57" style="edgeStyle=orthogonalEdgeStyle;rounded=0;orthogonalLoop=1;jettySize=auto;html=1;entryX=1;entryY=0.5;entryDx=0;entryDy=0;endArrow=none;endFill=0;" parent="1" source="K3CkPh_SVIyZ5qwEGXqX-52" edge="1">
          <mxGeometry relative="1" as="geometry">
            <mxPoint x="625" y="330" as="targetPoint" />
          </mxGeometry>
        </mxCell>
        <mxCell id="K3CkPh_SVIyZ5qwEGXqX-52" value="possui" style="shape=rhombus;perimeter=rhombusPerimeter;whiteSpace=wrap;html=1;align=center;" parent="1" vertex="1">
          <mxGeometry x="800" y="300" width="120" height="60" as="geometry" />
        </mxCell>
        <mxCell id="K3CkPh_SVIyZ5qwEGXqX-59" value="0:N" style="text;strokeColor=none;fillColor=none;spacingLeft=4;spacingRight=4;overflow=hidden;rotatable=0;points=[[0,0.5],[1,0.5]];portConstraint=eastwest;fontSize=12;" parent="1" vertex="1">
          <mxGeometry x="470" y="310" width="30" height="20" as="geometry" />
        </mxCell>
        <mxCell id="K3CkPh_SVIyZ5qwEGXqX-60" value="1:1" style="text;strokeColor=none;fillColor=none;spacingLeft=4;spacingRight=4;overflow=hidden;rotatable=0;points=[[0,0.5],[1,0.5]];portConstraint=eastwest;fontSize=12;" parent="1" vertex="1">
          <mxGeometry x="240" y="255" width="30" height="20" as="geometry" />
        </mxCell>
        <mxCell id="K3CkPh_SVIyZ5qwEGXqX-61" value="1:1" style="text;strokeColor=none;fillColor=none;spacingLeft=4;spacingRight=4;overflow=hidden;rotatable=0;points=[[0,0.5],[1,0.5]];portConstraint=eastwest;fontSize=12;" parent="1" vertex="1">
          <mxGeometry x="900" y="235" width="30" height="20" as="geometry" />
        </mxCell>
        <mxCell id="K3CkPh_SVIyZ5qwEGXqX-62" value="0:N" style="text;strokeColor=none;fillColor=none;spacingLeft=4;spacingRight=4;overflow=hidden;rotatable=0;points=[[0,0.5],[1,0.5]];portConstraint=eastwest;fontSize=12;" parent="1" vertex="1">
          <mxGeometry x="645" y="310" width="30" height="20" as="geometry" />
        </mxCell>
        <mxCell id="K3CkPh_SVIyZ5qwEGXqX-64" value="0:N" style="text;strokeColor=none;fillColor=none;spacingLeft=4;spacingRight=4;overflow=hidden;rotatable=0;points=[[0,0.5],[1,0.5]];portConstraint=eastwest;fontSize=12;" parent="1" vertex="1">
          <mxGeometry x="574" y="380" width="30" height="20" as="geometry" />
        </mxCell>
        <mxCell id="K3CkPh_SVIyZ5qwEGXqX-65" value="0:N" style="text;strokeColor=none;fillColor=none;spacingLeft=4;spacingRight=4;overflow=hidden;rotatable=0;points=[[0,0.5],[1,0.5]];portConstraint=eastwest;fontSize=12;" parent="1" vertex="1">
          <mxGeometry x="574" y="540" width="30" height="20" as="geometry" />
        </mxCell>
        <mxCell id="K3CkPh_SVIyZ5qwEGXqX-68" value="código" style="ellipse;whiteSpace=wrap;html=1;align=center;fontStyle=4;" parent="1" vertex="1">
          <mxGeometry x="400" y="600" width="100" height="40" as="geometry" />
        </mxCell>
        <mxCell id="K3CkPh_SVIyZ5qwEGXqX-69" value="data" style="ellipse;whiteSpace=wrap;html=1;align=center;" parent="1" vertex="1">
          <mxGeometry x="430" y="660" width="100" height="40" as="geometry" />
        </mxCell>
        <mxCell id="K3CkPh_SVIyZ5qwEGXqX-71" value="laudo" style="ellipse;whiteSpace=wrap;html=1;align=center;" parent="1" vertex="1">
          <mxGeometry x="645" y="600" width="100" height="40" as="geometry" />
        </mxCell>
        <mxCell id="K3CkPh_SVIyZ5qwEGXqX-72" value="resultado" style="ellipse;whiteSpace=wrap;html=1;align=center;" parent="1" vertex="1">
          <mxGeometry x="635" y="660" width="100" height="40" as="geometry" />
        </mxCell>
        <mxCell id="K3CkPh_SVIyZ5qwEGXqX-74" value="imagens" style="ellipse;shape=doubleEllipse;margin=3;whiteSpace=wrap;html=1;align=center;" parent="1" vertex="1">
          <mxGeometry x="524" y="690" width="100" height="40" as="geometry" />
        </mxCell>
        <mxCell id="K3CkPh_SVIyZ5qwEGXqX-76" value="" style="endArrow=none;html=1;rounded=0;exitX=0.5;exitY=1;exitDx=0;exitDy=0;entryX=0.5;entryY=0;entryDx=0;entryDy=0;" parent="1" source="K3CkPh_SVIyZ5qwEGXqX-38" target="K3CkPh_SVIyZ5qwEGXqX-74" edge="1">
          <mxGeometry relative="1" as="geometry">
            <mxPoint x="620" y="600" as="sourcePoint" />
            <mxPoint x="574" y="650" as="targetPoint" />
          </mxGeometry>
        </mxCell>
        <mxCell id="K3CkPh_SVIyZ5qwEGXqX-77" value="" style="endArrow=none;html=1;rounded=0;entryX=0.062;entryY=0.317;entryDx=0;entryDy=0;entryPerimeter=0;" parent="1" source="K3CkPh_SVIyZ5qwEGXqX-38" target="K3CkPh_SVIyZ5qwEGXqX-72" edge="1">
          <mxGeometry relative="1" as="geometry">
            <mxPoint x="584" y="610" as="sourcePoint" />
            <mxPoint x="630" y="680" as="targetPoint" />
          </mxGeometry>
        </mxCell>
        <mxCell id="K3CkPh_SVIyZ5qwEGXqX-78" value="" style="endArrow=none;html=1;rounded=0;entryX=0;entryY=0.5;entryDx=0;entryDy=0;" parent="1" source="K3CkPh_SVIyZ5qwEGXqX-38" target="K3CkPh_SVIyZ5qwEGXqX-71" edge="1">
          <mxGeometry relative="1" as="geometry">
            <mxPoint x="594" y="620" as="sourcePoint" />
            <mxPoint x="594" y="710" as="targetPoint" />
          </mxGeometry>
        </mxCell>
        <mxCell id="K3CkPh_SVIyZ5qwEGXqX-79" value="" style="endArrow=none;html=1;rounded=0;exitX=0.25;exitY=1;exitDx=0;exitDy=0;entryX=1;entryY=0;entryDx=0;entryDy=0;" parent="1" source="K3CkPh_SVIyZ5qwEGXqX-38" target="K3CkPh_SVIyZ5qwEGXqX-69" edge="1">
          <mxGeometry relative="1" as="geometry">
            <mxPoint x="604" y="630" as="sourcePoint" />
            <mxPoint x="604" y="720" as="targetPoint" />
          </mxGeometry>
        </mxCell>
        <mxCell id="K3CkPh_SVIyZ5qwEGXqX-80" value="" style="endArrow=none;html=1;rounded=0;exitX=0;exitY=1;exitDx=0;exitDy=0;" parent="1" source="K3CkPh_SVIyZ5qwEGXqX-38" target="K3CkPh_SVIyZ5qwEGXqX-68" edge="1">
          <mxGeometry relative="1" as="geometry">
            <mxPoint x="614" y="640" as="sourcePoint" />
            <mxPoint x="614" y="730" as="targetPoint" />
          </mxGeometry>
        </mxCell>
        <mxCell id="K3CkPh_SVIyZ5qwEGXqX-82" value="código" style="ellipse;whiteSpace=wrap;html=1;align=center;fontStyle=4;" parent="1" vertex="1">
          <mxGeometry x="532" y="200" width="84" height="30" as="geometry" />
        </mxCell>
        <mxCell id="K3CkPh_SVIyZ5qwEGXqX-83" value="dt atendimento" style="ellipse;whiteSpace=wrap;html=1;align=center;" parent="1" vertex="1">
          <mxGeometry x="440" y="220" width="90" height="35" as="geometry" />
        </mxCell>
        <mxCell id="K3CkPh_SVIyZ5qwEGXqX-84" value="código" style="ellipse;whiteSpace=wrap;html=1;align=center;fontStyle=4;" parent="1" vertex="1">
          <mxGeometry x="300" y="160" width="84" height="30" as="geometry" />
        </mxCell>
        <mxCell id="K3CkPh_SVIyZ5qwEGXqX-85" value="código" style="ellipse;whiteSpace=wrap;html=1;align=center;fontStyle=4;" parent="1" vertex="1">
          <mxGeometry x="830" y="150" width="84" height="30" as="geometry" />
        </mxCell>
        <mxCell id="K3CkPh_SVIyZ5qwEGXqX-86" value="" style="endArrow=none;html=1;rounded=0;exitX=0.5;exitY=1;exitDx=0;exitDy=0;entryX=0.5;entryY=0;entryDx=0;entryDy=0;" parent="1" source="K3CkPh_SVIyZ5qwEGXqX-82" edge="1">
          <mxGeometry relative="1" as="geometry">
            <mxPoint x="559" y="610" as="sourcePoint" />
            <mxPoint x="575" y="310" as="targetPoint" />
          </mxGeometry>
        </mxCell>
        <mxCell id="K3CkPh_SVIyZ5qwEGXqX-87" value="" style="endArrow=none;html=1;rounded=0;entryX=0.25;entryY=0;entryDx=0;entryDy=0;" parent="1" edge="1">
          <mxGeometry relative="1" as="geometry">
            <mxPoint x="510" y="250" as="sourcePoint" />
            <mxPoint x="550" y="310" as="targetPoint" />
          </mxGeometry>
        </mxCell>
        <mxCell id="FHr0bgZG3fKJSCPvn-BI-1" value="atendimento" style="shape=associativeEntity;whiteSpace=wrap;html=1;align=center;" vertex="1" parent="1">
          <mxGeometry x="507" y="305" width="134" height="50" as="geometry" />
        </mxCell>
        <mxCell id="FHr0bgZG3fKJSCPvn-BI-4" value="" style="endArrow=none;html=1;rounded=0;entryX=0.262;entryY=0.967;entryDx=0;entryDy=0;entryPerimeter=0;exitX=1;exitY=0;exitDx=0;exitDy=0;" edge="1" parent="1" source="K3CkPh_SVIyZ5qwEGXqX-36" target="K3CkPh_SVIyZ5qwEGXqX-84">
          <mxGeometry width="50" height="50" relative="1" as="geometry">
            <mxPoint x="420" y="320" as="sourcePoint" />
            <mxPoint x="470" y="270" as="targetPoint" />
          </mxGeometry>
        </mxCell>
        <mxCell id="FHr0bgZG3fKJSCPvn-BI-5" value="" style="endArrow=none;html=1;rounded=0;exitX=0.25;exitY=0;exitDx=0;exitDy=0;" edge="1" parent="1" source="K3CkPh_SVIyZ5qwEGXqX-37">
          <mxGeometry width="50" height="50" relative="1" as="geometry">
            <mxPoint x="265" y="230" as="sourcePoint" />
            <mxPoint x="890" y="180" as="targetPoint" />
          </mxGeometry>
        </mxCell>
        <mxCell id="FHr0bgZG3fKJSCPvn-BI-6" value="&lt;font style=&quot;font-size: 14px&quot;&gt;Carolina Nascimento Silva&lt;br&gt;&lt;br&gt;&lt;b&gt;1)Hospital&lt;/b&gt;&lt;/font&gt;" style="text;html=1;strokeColor=none;fillColor=none;align=left;verticalAlign=middle;whiteSpace=wrap;rounded=0;" vertex="1" parent="1">
          <mxGeometry x="30" y="40" width="710" height="40" as="geometry" />
        </mxCell>
        <mxCell id="FHr0bgZG3fKJSCPvn-BI-7" value="CRN" style="ellipse;whiteSpace=wrap;html=1;align=center;fontSize=14;" vertex="1" parent="1">
          <mxGeometry x="930" y="130" width="90" height="30" as="geometry" />
        </mxCell>
        <mxCell id="FHr0bgZG3fKJSCPvn-BI-8" value="" style="endArrow=none;html=1;rounded=0;fontSize=14;entryX=0.348;entryY=1;entryDx=0;entryDy=0;exitX=0.625;exitY=-0.021;exitDx=0;exitDy=0;entryPerimeter=0;exitPerimeter=0;" edge="1" parent="1" source="K3CkPh_SVIyZ5qwEGXqX-37" target="FHr0bgZG3fKJSCPvn-BI-7">
          <mxGeometry width="50" height="50" relative="1" as="geometry">
            <mxPoint x="410" y="350" as="sourcePoint" />
            <mxPoint x="460" y="300" as="targetPoint" />
          </mxGeometry>
        </mxCell>
        <mxCell id="FHr0bgZG3fKJSCPvn-BI-9" value="&lt;font style=&quot;font-size: 12px&quot;&gt;CPF&lt;/font&gt;" style="ellipse;whiteSpace=wrap;html=1;align=center;fontSize=14;" vertex="1" parent="1">
          <mxGeometry x="1020" y="160" width="90" height="30" as="geometry" />
        </mxCell>
        <mxCell id="FHr0bgZG3fKJSCPvn-BI-10" value="&lt;span style=&quot;font-size: 12px&quot;&gt;Nome&lt;/span&gt;" style="ellipse;whiteSpace=wrap;html=1;align=center;fontSize=14;" vertex="1" parent="1">
          <mxGeometry x="1020" y="205" width="90" height="30" as="geometry" />
        </mxCell>
        <mxCell id="FHr0bgZG3fKJSCPvn-BI-11" value="Nome" style="ellipse;whiteSpace=wrap;html=1;align=center;fontSize=14;" vertex="1" parent="1">
          <mxGeometry x="230" y="120" width="90" height="30" as="geometry" />
        </mxCell>
        <mxCell id="FHr0bgZG3fKJSCPvn-BI-12" value="CPF" style="ellipse;whiteSpace=wrap;html=1;align=center;fontSize=14;" vertex="1" parent="1">
          <mxGeometry x="150" y="100" width="90" height="30" as="geometry" />
        </mxCell>
        <mxCell id="FHr0bgZG3fKJSCPvn-BI-13" style="edgeStyle=orthogonalEdgeStyle;rounded=0;orthogonalLoop=1;jettySize=auto;html=1;exitX=0.5;exitY=1;exitDx=0;exitDy=0;fontSize=14;" edge="1" parent="1" source="FHr0bgZG3fKJSCPvn-BI-12" target="FHr0bgZG3fKJSCPvn-BI-12">
          <mxGeometry relative="1" as="geometry" />
        </mxCell>
        <mxCell id="FHr0bgZG3fKJSCPvn-BI-14" value="RG" style="ellipse;whiteSpace=wrap;html=1;align=center;fontSize=14;" vertex="1" parent="1">
          <mxGeometry x="50" y="100" width="90" height="30" as="geometry" />
        </mxCell>
        <mxCell id="FHr0bgZG3fKJSCPvn-BI-15" value="&lt;font style=&quot;font-size: 12px&quot;&gt;Convenio médico&lt;/font&gt;" style="ellipse;whiteSpace=wrap;html=1;align=center;fontSize=14;" vertex="1" parent="1">
          <mxGeometry x="20" y="140" width="90" height="30" as="geometry" />
        </mxCell>
        <mxCell id="FHr0bgZG3fKJSCPvn-BI-16" value="cor olhos&lt;span style=&quot;color: rgba(0 , 0 , 0 , 0) ; font-family: monospace ; font-size: 0px&quot;&gt;%3CmxGraphModel%3E%3Croot%3E%3CmxCell%20id%3D%220%22%2F%3E%3CmxCell%20id%3D%221%22%20parent%3D%220%22%2F%3E%3CmxCell%20id%3D%222%22%20value%3D%22Convenio%20m%C3%A9dico%22%20style%3D%22ellipse%3BwhiteSpace%3Dwrap%3Bhtml%3D1%3Balign%3Dcenter%3BfontSize%3D14%3B%22%20vertex%3D%221%22%20parent%3D%221%22%3E%3CmxGeometry%20x%3D%2260%22%20y%3D%22310%22%20width%3D%2290%22%20height%3D%2230%22%20as%3D%22geometry%22%2F%3E%3C%2FmxCell%3E%3C%2Froot%3E%3C%2FmxGraphModel%3E&lt;/span&gt;" style="ellipse;whiteSpace=wrap;html=1;align=center;fontSize=14;" vertex="1" parent="1">
          <mxGeometry x="10" y="180" width="90" height="30" as="geometry" />
        </mxCell>
        <mxCell id="FHr0bgZG3fKJSCPvn-BI-17" value="cor pele&lt;span style=&quot;color: rgba(0 , 0 , 0 , 0) ; font-family: monospace ; font-size: 0px&quot;&gt;%3CmxGraphModel%3E%3Croot%3E%3CmxCell%20id%3D%220%22%2F%3E%3CmxCell%20id%3D%221%22%20parent%3D%220%22%2F%3E%3CmxCell%20id%3D%222%22%20value%3D%22Convenio%20m%C3%A9dico%22%20style%3D%22ellipse%3BwhiteSpace%3Dwrap%3Bhtml%3D1%3Balign%3Dcenter%3BfontSize%3D14%3B%22%20vertex%3D%221%22%20parent%3D%221%22%3E%3CmxGeometry%20x%3D%2260%22%20y%3D%22310%22%20width%3D%2290%22%20height%3D%2230%22%20as%3D%22geometry%22%2F%3E%3C%2FmxCell%3E%3C%2Froot%3E%3C%2FmxGraphModel&lt;/span&gt;" style="ellipse;whiteSpace=wrap;html=1;align=center;fontSize=14;" vertex="1" parent="1">
          <mxGeometry x="10" y="220" width="90" height="30" as="geometry" />
        </mxCell>
        <mxCell id="FHr0bgZG3fKJSCPvn-BI-20" value="&lt;font style=&quot;font-size: 12px&quot;&gt;tipo sanguíneo&lt;/font&gt;" style="ellipse;whiteSpace=wrap;html=1;align=center;fontSize=14;" vertex="1" parent="1">
          <mxGeometry x="120" y="330" width="90" height="30" as="geometry" />
        </mxCell>
        <mxCell id="FHr0bgZG3fKJSCPvn-BI-21" value="sexo" style="ellipse;whiteSpace=wrap;html=1;align=center;fontSize=14;" vertex="1" parent="1">
          <mxGeometry x="60" y="300" width="90" height="30" as="geometry" />
        </mxCell>
        <mxCell id="FHr0bgZG3fKJSCPvn-BI-22" value="&lt;font style=&quot;font-size: 12px&quot;&gt;dt nascimento&lt;/font&gt;" style="ellipse;whiteSpace=wrap;html=1;align=center;fontSize=14;" vertex="1" parent="1">
          <mxGeometry x="20" y="265" width="90" height="30" as="geometry" />
        </mxCell>
        <mxCell id="FHr0bgZG3fKJSCPvn-BI-24" value="" style="endArrow=none;html=1;rounded=0;entryX=0.43;entryY=1;entryDx=0;entryDy=0;entryPerimeter=0;exitX=0.75;exitY=0;exitDx=0;exitDy=0;" edge="1" parent="1" source="K3CkPh_SVIyZ5qwEGXqX-36" target="FHr0bgZG3fKJSCPvn-BI-11">
          <mxGeometry width="50" height="50" relative="1" as="geometry">
            <mxPoint x="290" y="250" as="sourcePoint" />
            <mxPoint x="332.00800000000004" y="199.01" as="targetPoint" />
          </mxGeometry>
        </mxCell>
        <mxCell id="FHr0bgZG3fKJSCPvn-BI-25" value="" style="endArrow=none;html=1;rounded=0;entryX=0.578;entryY=1.028;entryDx=0;entryDy=0;entryPerimeter=0;exitX=0.403;exitY=0.021;exitDx=0;exitDy=0;exitPerimeter=0;" edge="1" parent="1" source="K3CkPh_SVIyZ5qwEGXqX-36" target="FHr0bgZG3fKJSCPvn-BI-12">
          <mxGeometry width="50" height="50" relative="1" as="geometry">
            <mxPoint x="300" y="260" as="sourcePoint" />
            <mxPoint x="342.00800000000004" y="209.01" as="targetPoint" />
          </mxGeometry>
        </mxCell>
        <mxCell id="FHr0bgZG3fKJSCPvn-BI-26" value="" style="endArrow=none;html=1;rounded=0;entryX=0.93;entryY=0.806;entryDx=0;entryDy=0;entryPerimeter=0;exitX=0.128;exitY=0;exitDx=0;exitDy=0;exitPerimeter=0;" edge="1" parent="1" source="K3CkPh_SVIyZ5qwEGXqX-36" target="FHr0bgZG3fKJSCPvn-BI-14">
          <mxGeometry width="50" height="50" relative="1" as="geometry">
            <mxPoint x="310" y="270" as="sourcePoint" />
            <mxPoint x="352.00800000000004" y="219.01" as="targetPoint" />
          </mxGeometry>
        </mxCell>
        <mxCell id="FHr0bgZG3fKJSCPvn-BI-27" value="" style="endArrow=none;html=1;rounded=0;entryX=1;entryY=0.5;entryDx=0;entryDy=0;exitX=0;exitY=0;exitDx=0;exitDy=0;" edge="1" parent="1" source="K3CkPh_SVIyZ5qwEGXqX-36" target="FHr0bgZG3fKJSCPvn-BI-15">
          <mxGeometry width="50" height="50" relative="1" as="geometry">
            <mxPoint x="202.79999999999984" y="230" as="sourcePoint" />
            <mxPoint x="143.70000000000005" y="134.18" as="targetPoint" />
          </mxGeometry>
        </mxCell>
        <mxCell id="FHr0bgZG3fKJSCPvn-BI-28" value="" style="endArrow=none;html=1;rounded=0;entryX=1;entryY=0.5;entryDx=0;entryDy=0;exitX=0;exitY=0.25;exitDx=0;exitDy=0;" edge="1" parent="1" source="K3CkPh_SVIyZ5qwEGXqX-36" target="FHr0bgZG3fKJSCPvn-BI-16">
          <mxGeometry width="50" height="50" relative="1" as="geometry">
            <mxPoint x="212.79999999999984" y="240" as="sourcePoint" />
            <mxPoint x="153.70000000000005" y="144.18" as="targetPoint" />
          </mxGeometry>
        </mxCell>
        <mxCell id="FHr0bgZG3fKJSCPvn-BI-29" value="" style="endArrow=none;html=1;rounded=0;entryX=1;entryY=0.5;entryDx=0;entryDy=0;exitX=0;exitY=0.375;exitDx=0;exitDy=0;exitPerimeter=0;" edge="1" parent="1" source="K3CkPh_SVIyZ5qwEGXqX-36" target="FHr0bgZG3fKJSCPvn-BI-17">
          <mxGeometry width="50" height="50" relative="1" as="geometry">
            <mxPoint x="190" y="240" as="sourcePoint" />
            <mxPoint x="120" y="205" as="targetPoint" />
          </mxGeometry>
        </mxCell>
        <mxCell id="FHr0bgZG3fKJSCPvn-BI-30" value="" style="endArrow=none;html=1;rounded=0;" edge="1" parent="1">
          <mxGeometry width="50" height="50" relative="1" as="geometry">
            <mxPoint x="180" y="240" as="sourcePoint" />
            <mxPoint x="110" y="280" as="targetPoint" />
          </mxGeometry>
        </mxCell>
        <mxCell id="FHr0bgZG3fKJSCPvn-BI-31" value="" style="endArrow=none;html=1;rounded=0;entryX=1;entryY=0;entryDx=0;entryDy=0;exitX=0;exitY=1;exitDx=0;exitDy=0;" edge="1" parent="1" source="K3CkPh_SVIyZ5qwEGXqX-36" target="FHr0bgZG3fKJSCPvn-BI-21">
          <mxGeometry width="50" height="50" relative="1" as="geometry">
            <mxPoint x="210" y="260" as="sourcePoint" />
            <mxPoint x="140" y="225" as="targetPoint" />
          </mxGeometry>
        </mxCell>
        <mxCell id="FHr0bgZG3fKJSCPvn-BI-32" value="" style="endArrow=none;html=1;rounded=0;entryX=0.25;entryY=1;entryDx=0;entryDy=0;exitX=0.698;exitY=-0.028;exitDx=0;exitDy=0;exitPerimeter=0;" edge="1" parent="1" source="FHr0bgZG3fKJSCPvn-BI-20" target="K3CkPh_SVIyZ5qwEGXqX-36">
          <mxGeometry width="50" height="50" relative="1" as="geometry">
            <mxPoint x="220" y="270" as="sourcePoint" />
            <mxPoint x="150" y="235" as="targetPoint" />
          </mxGeometry>
        </mxCell>
        <mxCell id="FHr0bgZG3fKJSCPvn-BI-33" value="&lt;font style=&quot;font-size: 12px&quot;&gt;telefones&lt;/font&gt;" style="ellipse;shape=doubleEllipse;margin=3;whiteSpace=wrap;html=1;align=center;fontSize=14;" vertex="1" parent="1">
          <mxGeometry x="312" y="220" width="60" height="30" as="geometry" />
        </mxCell>
        <mxCell id="FHr0bgZG3fKJSCPvn-BI-35" value="" style="endArrow=none;html=1;rounded=0;exitX=1;exitY=0.5;exitDx=0;exitDy=0;" edge="1" parent="1" source="K3CkPh_SVIyZ5qwEGXqX-36" target="FHr0bgZG3fKJSCPvn-BI-33">
          <mxGeometry width="50" height="50" relative="1" as="geometry">
            <mxPoint x="290" y="250" as="sourcePoint" />
            <mxPoint x="332.00800000000004" y="199.01" as="targetPoint" />
          </mxGeometry>
        </mxCell>
        <mxCell id="FHr0bgZG3fKJSCPvn-BI-36" value="" style="endArrow=none;html=1;rounded=0;fontSize=14;entryX=0.022;entryY=0.694;entryDx=0;entryDy=0;entryPerimeter=0;" edge="1" parent="1" target="FHr0bgZG3fKJSCPvn-BI-9">
          <mxGeometry width="50" height="50" relative="1" as="geometry">
            <mxPoint x="980" y="200" as="sourcePoint" />
            <mxPoint x="971.3199999999999" y="170" as="targetPoint" />
          </mxGeometry>
        </mxCell>
        <mxCell id="FHr0bgZG3fKJSCPvn-BI-37" value="" style="endArrow=none;html=1;rounded=0;fontSize=14;entryX=0;entryY=0.5;entryDx=0;entryDy=0;" edge="1" parent="1" source="K3CkPh_SVIyZ5qwEGXqX-37" target="FHr0bgZG3fKJSCPvn-BI-10">
          <mxGeometry width="50" height="50" relative="1" as="geometry">
            <mxPoint x="990" y="220" as="sourcePoint" />
            <mxPoint x="981.3199999999999" y="180" as="targetPoint" />
          </mxGeometry>
        </mxCell>
        <mxCell id="FHr0bgZG3fKJSCPvn-BI-38" value="diaguinótico" style="ellipse;shape=doubleEllipse;margin=3;whiteSpace=wrap;html=1;align=center;fontFamily=Helvetica;fontSize=12;fontColor=default;strokeColor=default;fillColor=default;" vertex="1" parent="1">
          <mxGeometry x="604" y="235" width="80" height="30" as="geometry" />
        </mxCell>
        <mxCell id="FHr0bgZG3fKJSCPvn-BI-39" value="" style="endArrow=none;html=1;rounded=0;entryX=0.75;entryY=0;entryDx=0;entryDy=0;" edge="1" parent="1" source="FHr0bgZG3fKJSCPvn-BI-38" target="FHr0bgZG3fKJSCPvn-BI-1">
          <mxGeometry relative="1" as="geometry">
            <mxPoint x="529.2422107297148" y="260.23477375540006" as="sourcePoint" />
            <mxPoint x="560" y="320" as="targetPoint" />
          </mxGeometry>
        </mxCell>
      </root>
    </mxGraphModel>
  </diagram>
</mxfile>
